<svg width="48" height="48" xmlns="http://www.w3.org/2000/svg">

 <g>
  <title>background</title>
  <rect fill="none" id="canvas_background" height="602" width="802" y="-1" x="-1"/>
 </g>
 <g>
  <title>Layer 1</title>
  <g stroke="null" id="svg_5">
   <path stroke="null" id="svg_1" clip-rule="evenodd" d="m22.7082,0.46878c0.7742,-0.43442 1.72741,-0.43442 2.50047,0c3.82539,2.14701 15.33692,8.6097 19.16346,10.75671c0.7742,0.43328 1.25081,1.23598 1.25081,2.10482c0,4.29402 0,17.21826 0,21.51228c0,0.86884 -0.47661,1.67154 -1.25081,2.10596c-3.82539,2.14701 -15.33692,8.6097 -19.16346,10.75671c-0.7742,0.43442 -1.72741,0.43442 -2.50047,0c-3.82539,-2.14701 -15.33692,-8.6097 -19.16346,-10.75671c-0.77306,-0.43442 -1.24967,-1.23598 -1.24967,-2.10482c0,-4.29402 0,-17.21826 0,-21.51228c0,-0.86884 0.47661,-1.67154 1.25081,-2.10596c3.82425,-2.14701 15.33806,-8.6097 19.16232,-10.75671z" fill-rule="evenodd" fill="#283593"/>
   <path stroke="null" id="svg_2" clip-rule="evenodd" d="m2.6417,35.85627c-0.3033,-0.40591 -0.34662,-0.7913 -0.34662,-1.3101c0,-4.26893 0,-17.11906 0,-21.38914c0,-0.86428 0.47547,-1.66242 1.24739,-2.09342c3.81171,-2.13447 15.28447,-8.55953 19.09618,-10.69514c0.77192,-0.43214 1.81749,-0.42302 2.58941,0.00912c3.81171,2.13447 15.24571,8.5048 19.05742,10.63927c0.30786,0.17331 0.54274,0.38197 0.75254,0.65676l-42.39631,24.18265z" fill-rule="evenodd" fill="#5c6bc0"/>
   <path stroke="null" id="svg_3" clip-rule="evenodd" d="m23.95901,8.12413c8.81038,0 15.9629,7.15252 15.9629,15.9629s-7.15252,15.9629 -15.9629,15.9629s-15.9629,-7.15252 -15.9629,-15.9629s7.15252,-15.9629 15.9629,-15.9629zm0,7.98145c4.40462,0 7.98145,3.57569 7.98145,7.98145c0,4.40462 -3.57683,7.98145 -7.98145,7.98145s-7.98145,-3.57683 -7.98145,-7.98145c0,-4.40576 3.57569,-7.98145 7.98145,-7.98145z" fill-rule="evenodd" fill="#fff"/>
   <path stroke="null" id="svg_4" clip-rule="evenodd" d="m45.03573,11.77849c0.58835,0.55072 0.57694,1.38079 0.57694,2.03413c0,4.32708 -0.03649,16.63448 0.01026,20.96156c0.00456,0.45152 -0.14481,0.92699 -0.36829,1.28501l-21.75971,-11.97217l21.54079,-12.30853z" fill-rule="evenodd" fill="#3949ab"/>
  </g>
 </g>
</svg>