<svg width="48" height="48" xmlns="http://www.w3.org/2000/svg">

 <g>
  <title>background</title>
  <rect fill="none" id="canvas_background" height="602" width="802" y="-1" x="-1"/>
 </g>
 <g>
  <title>Layer 1</title>
  <g stroke="null" id="svg_5">
   <path stroke="null" id="svg_1" d="m45.39216,-0.01961l-42.94118,0l3.78893,42.94118l17.68166,5.0519l17.68166,-5.0519l3.78893,-42.94118l0,0z" fill="#0277BD"/>
   <path stroke="null" id="svg_2" d="m23.92157,3.76932l0,40.28893l14.14533,-4.04152l3.15744,-36.2474l-17.30277,0z" fill="#039BE5"/>
   <path stroke="null" id="svg_3" d="m35.41465,10.0842l-11.49308,0l0,5.0519l6.18858,0l-0.37889,5.0519l-5.80969,0l0,5.0519l5.55709,0l-0.37889,5.68339l-5.1782,1.76817l0,5.3045l9.97751,-3.28374l0.88408,-14.52422l0,0l0.63149,-10.10381z" fill="#FFF"/>
   <path stroke="null" id="svg_4" d="m23.92157,10.0842l0,5.0519l-11.24048,0l-0.37889,-5.0519l11.61938,0zm-5.80969,10.10381l0.2526,5.0519l5.55709,0l0,-5.0519l-5.80969,0zm0.50519,7.57785l-5.0519,0l0.37889,6.94637l9.97751,3.28374l0,-5.3045l-5.1782,-1.76817l-0.1263,-3.15744z" fill="#EEE"/>
  </g>
 </g>
</svg>