<svg width="48" height="48" xmlns="http://www.w3.org/2000/svg" preserveAspectRatio="xMidYMid">

 <g>
  <title>background</title>
  <rect fill="none" id="canvas_background" height="50" width="50" y="-1" x="-1"/>
 </g>
 <g>
  <title>Layer 1</title>
  <path stroke="null" id="svg_1" d="m14.37436,40.64353c-1.82364,-1.435 -3.76687,-2.80721 -5.09424,-4.74147c-2.79526,-3.4126 -4.94775,-7.36184 -6.41863,-11.51436c-0.8894,-2.69959 -1.19583,-5.595 -2.34084,-8.19145c-1.19882,-1.88343 0.20628,-3.94624 2.27208,-4.54416c0.9193,-0.17639 2.53516,-1.04635 0.58297,-0.42452c-1.7489,1.28253 -1.91781,-1.16594 -0.12407,-1.32139c1.22573,-0.16443 1.67416,-1.16594 1.25562,-2.0658c-1.31541,-0.85801 3.18689,-1.79823 0.92079,-3.07927c-2.35878,-2.54114 3.3005,-3.03143 1.90436,-0.14051c-0.33184,2.22126 3.95521,-0.40957 2.95968,2.15848c1.01197,1.2332 3.7878,0.28102 3.71754,2.01049c1.47386,0.10165 1.9791,1.34083 3.36328,1.435c1.435,0.64724 4.03145,1.15697 4.51875,2.77283c-1.42005,1.12558 -4.71307,-2.3244 -4.87301,0.79224c0.4305,4.60395 0.31988,9.34542 2.00302,13.72964c0.79672,2.65325 2.72799,4.74297 4.46942,6.81026c1.66968,2.02394 3.9313,3.44997 6.23327,4.6488c2.02096,0.95368 4.20036,1.58448 6.40218,1.98209c0.89239,-0.68312 2.47089,-3.22277 3.86254,-2.1525c0.06727,1.2048 -2.76536,2.51723 -0.13453,2.38419c1.54711,-0.46637 2.61887,1.19583 3.89094,-0.30494c1.17341,1.39015 4.87301,-0.88641 4.04042,1.95219c-1.12857,0.72796 -2.77433,0.28849 -3.90439,1.29c-1.864,-0.93125 -3.34833,0.8326 -5.41114,0.60987c-2.29151,0.41107 -4.62189,0.57549 -6.94479,0.57848c-3.81171,-0.29896 -7.70265,-0.42751 -11.32751,-1.75488c-2.04338,-0.59343 -4.03593,-1.75638 -5.82968,-2.92082l0.00598,0.00149zm3.21828,1.39464c1.99405,0.861 3.94624,1.76983 6.12864,2.04487c3.46791,0.48132 7.04793,1.22573 10.5278,0.54709c-1.57551,-0.71152 -3.20333,0.27654 -4.77286,-0.50823c-1.88343,0.40359 -3.88645,-0.10464 -5.82968,-0.35427c-2.17492,-0.96862 -4.52323,-1.6353 -6.55914,-2.89391c-2.54563,-0.92976 1.31541,1.19284 2.00302,1.36474c1.59046,0.90285 -1.7489,-0.44844 -2.22126,-0.83708c-1.33335,-0.74739 -1.50226,-0.59194 -0.13154,0.16742l0.83708,0.46936l0.01794,0zm-3.79677,-2.68165c1.93276,0.7175 -0.00897,-1.36026 -0.89239,-1.24068c-0.39163,-0.68013 -1.49927,-1.11063 -0.7175,-1.47536c-1.4051,0.4873 -1.47087,-1.85354 -2.13007,-1.51871c-1.48582,-0.46936 -0.57848,-2.13157 -2.34682,-3.15401c-0.16144,-1.07625 -1.75787,-2.0075 -2.2661,-3.62935c-0.22422,-0.8311 -1.80421,-3.2138 -0.83409,-0.99553c0.82512,2.13755 2.27806,3.96568 3.48884,5.79231c0.93873,1.73993 2.04786,3.5576 3.7579,4.64431c0.57699,0.55307 1.13305,1.40062 1.94622,1.57401l-0.00598,0.00299zm-5.5666,-6.11369c0.06727,-0.29148 0.35277,0.6308 0,0zm7.88202,6.9702c0.42751,-0.19133 -0.61585,-0.24216 0,0zm1.04635,0.38267c-0.10912,-0.52766 -0.47833,0.29597 0,0zm1.31541,0.54709c0.62482,-0.59493 -0.96414,-0.3737 0,0zm2.25115,1.25562c0.37968,-0.56055 -1.21526,-0.20927 0,0zm-4.31994,-3.012c0.97161,-0.62781 -1.25562,-0.00897 0,0zm0.98656,0.49328c-0.0299,-0.33184 -0.35128,0.14948 0,0zm4.92234,3.07329c0.79224,0.49926 4.62189,1.09419 2.22425,0.20479c-0.40359,0.08371 -4.447,-1.14501 -2.22425,-0.20479zm-7.81476,-6.08678c-0.07474,-0.33184 -1.22872,-0.36772 0,0zm2.29151,1.33634c0.59792,-0.41854 -1.23769,-0.32138 0,0zm1.94323,1.19583c0.85651,-0.32287 -1.38716,-0.32437 0,0zm-5.17048,-3.55012c0.92677,0.71152 3.74594,0.08969 1.42005,-0.42452c-1.05682,-0.56354 -3.43802,-0.94919 -1.81467,0.33932l0.39313,0.0852l0.00149,0zm6.45749,3.94176c0.38865,-0.65771 -1.62334,-0.37669 0,0zm-1.96266,-1.55907c2.27208,0.64276 -1.90885,-1.435 -0.56055,-0.23917l0.29896,0.13453l0.26159,0.10165l0,0.00299zm3.93429,2.27208c2.1525,0.02093 -1.94323,-0.29896 0,0zm-9.25723,-5.89993c-0.08371,-0.4006 -0.53065,0.03289 0,0zm12.89555,7.94032c0.0568,-0.72348 -0.70255,0.53812 0,0zm-9.22285,-5.69515c-0.13005,-0.38117 -0.67266,-0.01495 0,0zm-3.46791,-2.4963c1.2347,-0.07474 -1.68911,-0.5441 0,0zm-4.10619,-2.65176c-0.15396,-0.59194 -1.34232,-1.06429 0,0zm10.78042,6.84165c-0.22422,-0.2586 -0.10464,0.05531 0,0zm6.70861,4.11814c-0.02093,-0.39462 -0.36473,0.14948 0,0zm-7.30205,-4.73101c0.11958,-0.50823 -1.05383,-0.15396 0,0zm-4.99858,-3.16895c0.9193,-0.09716 -1.47237,-0.62034 0,0zm8.45453,5.25418c1.43201,-0.56802 -1.39464,-0.27654 0,0zm-4.39767,-2.98509c1.64875,0.21226 -1.96266,-1.12109 -0.36323,-0.11958l0.36323,0.11958zm5.73252,3.52471c1.53963,-0.9193 1.0314,2.15698 2.61289,0.26009c1.55907,-1.13903 -1.34531,1.40809 0.574,0.20329c1.39015,-0.92976 3.4425,0.44096 4.73848,0.88641c0.93275,-0.04484 1.83859,0.80719 2.79526,0.28849c1.83859,-0.49627 -3.59945,-0.73544 -2.17342,-1.61437c-1.68313,0.49029 -2.9268,-0.58297 -3.75641,-1.66221c-1.88941,-0.43648 -4.07181,-1.40211 -5.01502,-3.07329c-0.38416,-0.62781 0.55307,0.08969 -0.33184,-0.93723c-1.13604,-1.01197 -1.70406,-2.16147 -2.46939,-3.39317c-0.91182,-0.48581 -1.02094,-1.91931 -1.11212,-0.04783c0.00747,-1.18088 -1.10166,-1.97761 -1.37521,-1.64726c-0.00448,-1.13604 1.18836,-0.56802 0.35277,-1.40809c-0.17937,-1.18088 -0.77131,-2.40661 -0.9477,-3.73996c-0.27654,-0.64276 -0.03886,-2.01797 -0.94172,-0.56354c-0.32885,1.53515 -0.10912,-1.88642 0.40359,-0.75935c0.67266,-1.15099 -0.24216,-1.01646 -0.27803,-0.85651c0.43797,-0.97161 0.27803,-2.34981 -0.1151,-1.82364c0.23319,-1.0314 0.36921,-3.78929 -0.34829,-3.3005c0.43349,-1.07625 0.82512,-4.92832 -1.06429,-3.46044c-0.76533,0.01046 -2.08972,0.27803 -2.71603,0.58895c1.96266,1.08223 -0.19731,0.39163 -0.99852,0.21824c-0.10464,1.00151 -0.89687,0.56802 -1.88343,0.57848c1.58149,0.19432 -0.76982,1.61437 -1.67416,1.06429c-1.17789,0.56204 1.01646,1.96714 0.02242,2.40213c0.12257,0.65322 -1.80421,-0.23618 -1.65324,1.27655c-1.14202,-0.48132 -0.15695,1.79375 0.41555,1.02393c1.94323,0.52617 1.36773,1.72499 1.41706,2.86551c-0.3169,0.66369 -1.56355,-1.56056 -0.27803,-1.45742c-1.01646,-1.64875 -1.12109,-0.59792 -1.96565,0.17041c-0.19432,0.05531 2.1525,1.0912 0.67863,1.59942c1.29598,0.2003 1.33335,1.33485 1.59644,2.05085c0.77729,0.81167 0.61735,-0.89687 1.5501,0.07922c-0.59044,-0.86698 -3.12411,-2.44697 -1.08372,-1.94323c-0.01046,-0.87296 -0.36921,-1.5785 0.2571,-1.56205c0.62034,-1.12109 -0.64874,2.76536 0.74739,1.33933c0.38566,-0.16891 0.48282,-1.12109 1.1764,0.08969c1.00749,0.99254 0.36473,1.71004 -1.05831,0.80121c0.25411,0.86399 1.90287,1.17191 1.59195,2.52171c0.32885,1.18836 0.78775,0.75038 1.18836,0.68162c0.29896,1.15398 0.49328,0.30494 0.50823,-0.24365c1.43799,0.30793 1.10017,1.15846 1.55159,1.75189c0.99105,0.44844 -1.42005,-3.03143 0.28401,-1.04635c1.78926,1.61437 0.67266,2.29151 -0.93424,2.03291c1.01646,-0.08221 1.34531,1.37521 2.61588,1.32289c1.15996,0.55307 1.94323,2.67119 -0.05381,1.78777c-0.69209,-0.62482 -3.14803,-1.39613 -1.14202,-0.20927c1.85055,0.85801 3.32142,1.36923 5.1062,2.44697c1.27655,0.89687 1.82813,1.95518 2.31244,2.16296c-1.07326,0.51271 -3.23472,-0.40957 -1.64427,-0.69209c-1.00151,-0.18236 -2.12858,-0.6876 -1.16893,0.55905c0.81616,0.68162 2.88943,0.60987 3.26163,0.6876c-0.31391,0.69358 -0.85651,0.74739 0.01196,0.8027c-0.96862,0.5172 0.31092,0.59792 0.4006,0.89239l0.01196,0.00448zm-1.98209,-5.59649c-0.59044,-0.61735 -0.74291,-1.77133 -0.10464,-0.76683c0.32885,0.13154 1.04635,1.88792 0.10464,0.76683zm6.45749,4.08227c0.36772,-0.02392 0.01046,0.27953 0,0zm-7.38426,-5.61293c-0.02392,-0.93275 0.21226,0.7175 0,0zm-0.64276,-0.86249c-0.74291,-1.435 0.93424,0.40359 0,0zm-7.77589,-5.38124c0.43648,-0.11659 0.21525,0.74441 0,0zm6.18843,3.35431c0.26906,-1.00599 0.29896,0.84306 0,0zm-4.37226,-3.0404c-0.30793,-0.55307 0.64276,0.52019 0,0zm3.75192,1.20181c-0.70255,-1.57401 0.49926,-0.8595 0.15695,0.2571l-0.15695,-0.2571zm-6.46945,-4.31396c-0.29896,-0.5172 -0.8326,-2.03291 -0.66518,-2.4963c0.14948,0.75337 1.60241,3.24369 0.71152,1.04635c-0.98357,-1.85354 1.1764,0.60091 1.39912,1.06429c0.10464,0.4589 -0.60688,-0.12556 -0.12556,0.95368c-0.87894,-1.22872 -0.51869,0.67863 -1.3184,-0.55307l-0.00149,-0.01495zm-1.99853,-1.3782c0.08221,-1.20181 0.45741,0.82213 0,0zm0.89986,0.31092c0.429,-0.90584 0.72647,1.2631 0,0zm-2.18239,-1.64427c-0.74441,-0.73992 -1.28253,-1.42005 0.03587,-0.4589c0.50823,0.01943 -1.12857,-1.5501 0.12257,-0.49926c1.31541,0.23917 0.64874,2.15698 -0.15695,0.95667l-0.00149,0.00149zm1.13604,-0.0299c0.43349,-0.429 0.2302,0.42153 0,0zm0.69956,0.22422c-0.65771,-1.22872 0.79523,0.5157 0,0zm-1.39015,-1.32737c-2.16446,-1.92828 2.72052,1.00599 0.35277,0.35875l-0.35277,-0.35875zm6.20039,3.60244c-0.93723,-0.56055 -0.24963,-3.95222 0.07026,-1.6338c0.91182,-0.29447 -0.05082,1.19882 0.62781,1.18387c-0.10464,0.94172 -0.41107,1.28103 -0.69807,0.44844l0,0.00149zm2.29301,1.35577c0.08969,-1.02244 0.19432,0.69956 0,0zm-0.39761,-0.39462c0.10464,-0.43648 0.00897,0.51421 0,0zm-7.65631,-5.19738c-1.39015,-1.91781 4.04042,1.94024 0.89089,0.48581c-0.32885,-0.0867 -0.72497,-0.11659 -0.89089,-0.48581zm4.4171,2.34084c-0.13154,-1.61437 0.29298,0.26906 0,0zm3.35281,2.1525c0.2586,-0.9193 0.01943,0.60838 0,0zm-7.55616,-5.22578c0.82662,-0.17639 3.43802,1.44995 1.03888,0.46338c-0.26458,-0.29298 -0.8311,-0.15994 -1.03888,-0.46338zm7.09427,3.53667c0.08969,-1.65174 0.49328,-0.98656 0.00299,0.23917l-0.00299,-0.23917zm-6.47991,-4.11067c0.33782,-0.49328 -0.89388,-2.23172 0.17639,-0.62333c0.44844,0.36772 1.34083,0.61585 0.56802,0.77131c1.21825,1.07625 -0.29896,0.29148 -0.74291,-0.14948l-0.00149,0.00149zm6.12864,3.59646c0.23169,-1.88343 0.20479,1.10166 0,0zm-6.83119,-5.33341c0.2571,-0.11061 0.13453,0.3438 0,0zm1.59942,0.95218c0.41107,-0.86399 0.75935,0.96264 0,0zm4.50978,2.50826c-0.00299,-0.32885 0.0852,0.48282 0,0zm-0.26159,-0.57699c-0.62482,-1.54412 0.59792,0.81765 0,0zm-0.38416,-1.01347c-0.10464,-0.63828 0.35875,0.80121 0,0zm0.62482,-1.01646c-0.4305,-0.75636 0.54261,-3.33338 0.65173,-1.73396c-0.45292,1.24665 -0.13005,1.94323 0.18386,0.26906c0.58297,-1.31541 -0.12556,2.59645 -0.83708,1.46489l0.00149,0zm0.64276,-3.83563c0.18685,-0.2302 0.04185,0.27654 0,0zm-1.07475,21.15277c-0.25411,-0.22422 0.03289,0.14051 0,0zm2.21229,1.1181c1.23021,0.3169 1.22573,-0.19133 0.11211,-0.3438c-0.59792,-0.55606 -2.48434,-1.1465 -0.79523,-0.06876c0.11061,0.29896 0.46338,0.27654 0.68312,0.41107l0,0.00149zm-4.36479,-2.89989c0.67714,0.50823 2.55161,1.43201 0.96563,0.19432c0.53513,-0.62183 -1.02393,-0.95368 -0.50823,-1.36923c-1.31541,-0.80719 -1.03888,-0.74739 -0.11659,-0.70704c-1.58149,-0.70704 0.2287,-0.65322 0.1435,-1.01646c-0.60987,-0.11958 -3.02844,-1.07625 -1.6054,0.07773c-1.44696,-0.73693 -0.3438,0.27504 -0.78177,0.16891c-1.49479,-0.40359 1.31541,1.12707 -0.23468,0.74739c0.84755,0.67266 2.28404,1.72349 0.35875,0.71152c-0.25411,0.36473 1.3782,0.9193 1.79375,1.19583l-0.01495,-0.00299zm2.31244,1.33036c2.8102,0.90584 -1.37969,-1.10614 0,0zm11.83873,7.172c0.03587,-0.55905 -0.38416,0.47833 0,0zm1.21676,0.51271c0.64874,-0.62781 0.02691,1.00151 1.07625,-0.15396c0.01046,-0.82662 -0.0299,-1.31541 -1.2048,-0.31092c-0.32437,0.17937 -0.46787,0.94172 0.13005,0.46338l-0.00149,0.00149zm-19.31716,-12.1362c-0.19881,-0.78327 -1.39613,-0.78028 0,0zm1.30047,0.85203c-0.48282,-0.79971 -1.722,-0.72497 0,0zm7.39323,4.45896c0.72198,0.64276 3.31544,0.47086 0.87595,0.07922c-0.35875,-0.53364 -2.29151,-0.40359 -0.87595,-0.07922zm10.16158,6.27812c1.11063,-0.93275 -1.07625,0.41555 0,0zm2.31094,1.58747c0.00747,-0.29896 -0.47833,0.13005 0,0zm0.00448,-0.41854c1.23021,-1.30047 -1.19135,0.07474 0,0zm-24.36656,-15.4337c-1.04635,-1.49479 -0.65173,-2.16744 -1.66221,-3.38869c-0.19133,-0.93424 -1.73396,-3.05385 -0.79822,-0.80719c0.85801,1.31541 1.11212,3.34833 2.46042,4.20036l0,-0.00448zm23.97642,15.01665c2.26461,-1.4619 -0.92677,-0.63678 0,0zm1.72798,0.67714c1.13604,-0.97161 -0.7175,-0.20329 0,0zm-22.89419,-14.66986c0.32437,-0.48282 -0.83708,-0.06278 0,0zm22.53395,14.20797c1.09718,-0.70704 -0.25411,-0.59792 -0.19881,0.06428l0.19881,-0.06428zm-14.89109,-9.38728c-0.03737,-0.47833 -0.57998,0.04036 0,0zm0.9193,0.52916c-0.29298,-0.59194 -0.44844,0.09268 0,0zm15.73266,9.33496c1.4051,-1.01646 -0.85203,-0.19432 -0.29447,0.19432l0.29447,-0.19432zm-0.53812,-0.26009c1.1465,-0.95965 -1.21078,0.42452 0,0zm2.75041,1.83112c0.76832,-0.51421 -0.93424,-0.16443 0,0zm-25.80007,-16.60711c1.0314,0.2302 4.11814,2.53815 2.29749,0.15994c-0.93275,-0.27654 -0.3737,-2.55609 -1.32588,-2.1525c0.63828,1.06728 0.52318,1.5217 -0.81616,0.84904c-1.68463,-0.82213 -0.9462,0.40658 -0.61735,0.74739c-0.44844,0.10464 0.59343,0.38865 0.46338,0.39761l-0.00149,-0.00149zm-4.69364,-3.70708c0.18386,-0.76234 -1.69958,-4.20036 -0.8894,-1.722c0.29148,0.51869 0.26159,1.50226 0.8894,1.722zm8.61896,5.31398c-0.53215,-0.44395 -0.02541,-0.06278 0,0zm1.30645,0.30494c0,-0.80719 -1.44397,-0.32885 0,0zm11.32602,7.13911c-0.21674,-0.55307 -0.85203,-0.01196 0,0zm0.5441,0.39761c-0.08072,-0.30942 -0.29896,0.05979 0,0zm4.48885,2.82814c0.43349,-0.31839 -0.53812,-0.04185 0,0zm-23.94204,-15.38288c1.2347,-0.47833 -1.32289,-0.34081 0,0zm17.90758,11.28267c-0.01495,-0.79971 -0.78775,0.19881 0,0zm-18.39637,-12.4217c0.79224,-0.26906 -0.73245,-0.17639 0,0zm2.30198,1.11511c-0.01495,-0.26308 -0.24365,0.10015 0,0zm28.0841,17.21997c1.01945,-0.20628 3.34534,0.51869 3.72203,-0.26906c-1.24068,-0.0299 -4.28556,-0.87445 -4.42906,0.2003l0.26906,0.04484l0.43797,0.02691l0,-0.00299zm-27.35166,-17.03462c0.01794,-0.81018 -0.6308,-0.0299 0,0zm-6.0539,-4.20036c-0.27504,-1.54262 -1.04635,-0.23319 0,0zm1.44247,0.36323c0.01794,-0.49627 -1.32139,-0.44545 0,0zm0.82512,0.40359c-0.23917,-0.19432 -0.18535,0.24365 0,0zm5.1914,3.3289c0.24515,-0.22422 -0.57848,-0.16443 0,0zm-5.73999,-4.2452c-0.14051,-1.16594 -1.67416,-0.17489 0,0zm-2.95968,-1.9208c-0.04185,-0.53812 -0.28849,0.20329 0,0zm0.44096,-0.33184c-0.07175,-0.63828 -0.37818,0.08072 0,0zm2.43202,1.44995c1.02842,-0.40359 -1.87297,-0.83708 -0.20927,-0.07474l0.20927,0.07474zm32.55352,20.11538c0.65771,-0.60389 -0.83708,-0.18685 0,0zm3.9313,2.0374c0.26458,-0.77729 -0.66518,0.10464 0,0zm-36.23818,-23.42036c0.10912,-0.75487 -0.81616,0.14948 0,0zm-3.46193,-2.31692c-0.18236,-1.06877 -0.15546,-2.93726 1.62035,-2.30646c-2.37223,0.47235 1.64427,2.95071 1.13604,0.99254c0.99852,0.04933 1.95219,-0.59044 1.42752,0.37818c1.96864,-0.21375 3.3289,-1.9208 5.23027,-1.68014c1.49479,-0.19731 3.0972,-0.3438 4.69364,-0.94172c1.31093,-0.09417 2.57104,-1.50525 1.85354,-2.34234c-1.78777,-0.14948 -3.65924,0.07175 -5.63536,0.46637c-2.18987,0.45442 -4.17794,1.3199 -6.38724,1.68911c-2.1525,0.28999 0.43349,0.79672 -0.18386,0.91182c-1.12109,0.38865 1.34083,0.65173 -0.14499,1.06429c-0.9178,-0.17489 -1.87297,-0.49029 -1.47984,-1.45742c-2.06281,0.26906 -3.87599,1.12408 -2.24517,3.22277l0.11958,0.00149l-0.00448,0.00149zm4.97466,-2.51872c0.48282,-1.78179 2.59047,1.46489 0.79224,0.23917c-0.21375,-0.16144 -0.56802,-0.29148 -0.79224,-0.23917zm0.09417,-0.86399c0.69807,-0.51869 0.37071,0.29148 0,0zm0.88641,0.01495c0.06428,-0.81914 2.02992,0.44844 0.32437,0.29447l-0.32437,-0.29447zm1.21078,-0.4873c0.44395,-0.51869 0.12855,0.4589 0,0zm0.31092,-0.20927c0.73843,-0.88641 4.17495,-0.56802 1.64427,-0.0867c-0.67266,-0.50823 -1.19135,0.29896 -1.64427,0.0867zm4.48437,-0.69209c-0.11061,-2.42156 2.23023,0.8595 0,0zm1.27356,-0.00747c0.46338,-1.21975 1.8087,-0.49029 0.21674,-0.24515c0.03438,0.13005 -0.04783,0.6308 -0.21674,0.24515zm-10.27369,6.46795c1.39015,-0.85203 -1.47536,-0.73843 0,0zm1.02842,0.29896c0.4873,-0.51869 -1.04635,-0.20927 0,0zm-3.02844,-2.17492c0.79224,-0.61286 -0.94172,-0.23169 0,0zm41.06187,25.68796c0.02242,-0.70853 -0.60688,0.31839 0,0zm-4.17046,-2.84757c0.11958,-0.81466 -0.53812,0.07026 0,0zm5.32145,3.12411c1.11063,0.00448 3.36627,-0.3438 0.94919,-0.3438c-0.37968,0.05979 -2.21229,0.04484 -0.94919,0.3438zm-38.27707,-24.31574c0.89986,-0.05979 1.4051,-0.99105 -0.17489,-0.93873c-2.45145,-0.25411 2.16147,0.84007 -0.29896,0.52617c-0.33184,0.21973 0.46936,0.47235 0.4888,0.41107l-0.01495,0.00149zm0.79224,0.4006c-0.09417,-0.57699 -0.27803,0.30643 0,0zm0.94172,-2.50527c0.38865,-0.48431 -0.53812,-0.13005 0,0zm-2.98958,-4.99858c1.6054,-0.5456 3.79975,-1.15846 4.55911,0.26906c-0.77131,-0.92677 -0.31092,-1.84158 0.41854,-0.48431c1.0314,1.37222 1.54561,-0.62482 0.87595,-1.08522c0.76234,0.9477 1.62932,1.39613 0.51122,0.05979c1.21825,-1.46489 -2.43651,0.19133 -3.26761,0.17489c-0.39911,0.17937 -4.12562,0.95069 -3.09421,1.06578l-0.00299,0zm0.94172,-1.80122c0.91481,-0.69059 3.16596,0.41107 1.722,-0.6876c-0.142,-0.12407 -3.16148,0.8326 -1.722,0.6876zm3.33637,0.13752c1.07027,0.02691 -0.46338,-1.43948 0.81317,-0.7743c-0.20927,-0.68461 -1.48582,-0.81167 -2.11064,-1.08671c-0.35277,0.62482 0.7175,1.86849 1.29598,1.86101l0.00149,0zm-2.75041,-3.02844c0.37071,-0.50225 -0.65023,0.25411 0,0zm1.35727,0.32586c1.72648,-0.2287 -0.43947,-0.74291 -0.34829,-0.01794l0.34829,0.01794zm-2.54712,-1.98807c-1.21526,-1.58747 2.28703,0.26607 1.05084,-1.39464c-1.04037,-0.82662 -2.0374,0.93275 -1.05084,1.39464zm15.59663,8.40072c0.55756,-0.98656 -2.30198,-1.33036 -0.3737,-0.34978c0.17639,0.05979 0.13752,0.41854 0.3737,0.34978z"/>
 </g>
</svg>