<svg width="48" height="48" xmlns="http://www.w3.org/2000/svg">

 <g>
  <title>background</title>
  <rect fill="none" id="canvas_background" height="602" width="802" y="-1" x="-1"/>
 </g>
 <g>
  <title>Layer 1</title>
  <g stroke="null" id="svg_7">
   <polygon stroke="null" id="svg_1" points="2.585986949503422,0.06369457393884659 45.343915320932865,0.06369457393884659 40.31356558948755,42.82167053222656 23.964988090097904,47.852020263671875 6.358753062784672,42.82167053222656 " fill="#e7a42b"/>
   <polygon stroke="null" id="svg_2" points="41.10584769397974,3.8364553451538086 36.85520301014185,39.941795349121094 23.964988090097904,43.903194427490234 23.964988090097904,3.8364553451538086 " fill="#f2bf22"/>
   <polygon stroke="null" id="svg_3" points="23.964988090097904,20.185083389282227 25.222575522959232,22.700258255004883 23.964988090097904,25.21543312072754 12.382582046091557,25.21543312072754 13.45152983814478,8.86680793762207 23.964988090097904,8.86680793762207 25.222575522959232,11.381982803344727 23.964988090097904,13.897156715393066 18.972365714609623,13.897156715393066 18.55736479908228,20.185083389282227 " fill="#faf9f8"/>
   <polygon stroke="null" id="svg_4" points="23.839227057993412,34.73538589477539 23.964988090097904,34.697662353515625 25.222575522959232,37.791324615478516 23.964988090097904,39.95437240600586 23.88953337818384,39.97952651977539 13.41380438953638,36.98646545410156 12.709553100168705,28.98819351196289 17.765076972544193,28.98819351196289 18.117204047739506,33.100521087646484 " fill="#ebebeb"/>
   <polygon stroke="null" id="svg_5" points="35.37124762684107,20.185083389282227 33.396859504282475,37.06192398071289 23.964988090097904,39.95437240600586 23.964988090097904,34.697662353515625 28.78154692798853,33.213706970214844 29.712161399424076,25.21543312072754 23.964988090097904,25.21543312072754 23.964988090097904,20.185083389282227 " fill="#fff"/>
   <polygon stroke="null" id="svg_6" points="36.440194465219975,16.412321090698242 31.422480918467045,16.412321090698242 31.09550604969263,13.897156715393066 23.964988090097904,13.897156715393066 23.964988090097904,8.86680793762207 35.446706153452396,8.86680793762207 35.66049323230982,10.45136833190918 " fill="#fff"/>
  </g>
 </g>
</svg>