<svg width="48" height="48" xmlns="http://www.w3.org/2000/svg">

 <g>
  <title>background</title>
  <rect fill="none" id="canvas_background" height="602" width="802" y="-1" x="-1"/>
 </g>
 <g>
  <title>Layer 1</title>
  <g stroke="null" id="svg_9">
   <path stroke="null" id="svg_1" d="m23.58164,25.09997c-1.19291,-1.92324 -2.05831,-3.51777 -3.2572,-6.52037c-2.02723,-5.07167 12.32954,-9.65446 6.50842,-18.46025c2.52328,6.08289 -9.05681,9.84331 -10.13258,14.90901c-0.98373,4.65929 6.87538,10.07162 6.88136,10.07162z" fill="#F44336"/>
   <path stroke="null" id="svg_2" d="m23.85417,15.9822c-0.2295,3.00738 2.66433,4.61028 2.748,6.80725c0.06694,1.78817 -1.7296,3.27871 -1.7296,3.27871s3.26078,-0.64068 4.27799,-3.36836c1.12956,-3.0289 -2.19218,-5.10275 -1.85033,-7.52801c0.31915,-2.3165 7.20887,-6.62556 7.20887,-6.62556s-10.13736,0.67176 -10.65492,7.43598z" fill="#F44336"/>
   <g stroke="null" id="svg_3">
    <path stroke="null" id="svg_4" d="m33.66282,25.28763c2.09656,-0.47095 3.86441,0.8642 3.86441,2.40256c0,3.46757 -4.80631,6.74509 -4.80631,6.74509s7.44076,-0.88691 7.44076,-6.58014c0,-3.7652 -3.65404,-4.70591 -6.49886,-2.56751zm-3.53212,2.79701c0,0 2.32008,-1.6531 2.93805,-2.27346c-5.69322,1.20845 -18.69214,1.37101 -18.69214,0.32154c0,-0.967 4.19193,-1.95791 4.19193,-1.95791s-9.29108,-0.13387 -9.29108,2.60695c0,2.85677 12.1622,3.06117 20.85324,1.30288z" fill="#1565C0"/>
    <path stroke="null" id="svg_5" d="m28.70351,30.68562c-5.38962,1.79176 -15.3166,1.21921 -12.37616,-1.18694c-1.43197,0 -3.55483,1.15108 -3.55483,2.25793c0,2.21968 10.73621,3.93374 18.68257,0.68371l-2.75159,-1.7547z" fill="#1565C0"/>
    <path stroke="null" id="svg_6" d="m17.64816,34.47233c-1.95551,0 -3.22134,1.25985 -3.22134,2.17784c0,2.85797 11.66615,3.14604 16.28838,0.24504l-2.93805,-1.95073c-3.45323,1.51803 -12.12754,1.72721 -10.12899,-0.47214z" fill="#1565C0"/>
    <path stroke="null" id="svg_7" d="m38.67951,39.12565c0,-1.1188 -1.26104,-1.64593 -1.71287,-1.89814c2.66313,6.42236 -26.67556,5.92392 -26.67556,2.13242c0,-0.86181 2.15991,-1.7057 4.15607,-1.30647l-1.69733,-1.00286c-3.97797,-0.62395 -6.67935,1.12478 -6.67935,2.53524c0,6.57775 32.60904,6.26099 32.60904,-0.46019z" fill="#1565C0"/>
    <path stroke="null" id="svg_8" d="m41.92953,41.48278c-4.95572,4.89476 -17.52194,6.67815 -30.15867,3.65404c12.63674,5.38245 30.09891,2.35116 30.15867,-3.65404z" fill="#1565C0"/>
   </g>
  </g>
 </g>
</svg>