<svg width="48" height="48" xmlns="http://www.w3.org/2000/svg">

 <g>
  <title>background</title>
  <rect fill="none" id="canvas_background" height="602" width="802" y="-1" x="-1"/>
 </g>
 <g>
  <title>Layer 1</title>
  <g stroke="null" id="svg_3">
   <path stroke="null" id="svg_1" d="m0.00147,48.03743l0,-47.99374l47.99374,0l0,47.99374l-47.99374,0z" fill="#ffd600"/>
   <path stroke="null" id="svg_2" d="m31.38137,35.96834c0.92255,1.49847 1.92508,2.93428 4.04881,2.93428c1.78377,0 2.71965,-0.88655 2.71965,-2.11306c0,-1.46781 -0.96787,-1.98907 -2.93028,-2.84363l-1.07586,-0.45861c-3.10493,-1.31716 -5.16999,-2.96761 -5.16999,-6.45382c0,-3.21291 2.45968,-5.65793 6.30318,-5.65793c2.73698,0 4.70339,0.94788 6.12187,3.43022l-3.35156,2.14239c-0.73724,-1.31716 -1.53447,-1.83576 -2.77031,-1.83576c-1.26117,0 -2.05973,0.7959 -2.05973,1.83576c0,1.28517 0.7999,1.8051 2.64632,2.60099l1.07586,0.45861c3.65952,1.55846 5.72325,3.15026 5.72325,6.72846c0,3.8555 -3.04494,5.96855 -7.1324,5.96855c-3.99815,0 -6.26852,-2.0064 -7.53235,-4.49008l3.38356,-2.24637zm-15.44599,0.10932c0.67458,1.20784 1.69978,2.13705 3.17425,2.13705c1.41048,0 2.22238,-0.55726 2.22238,-2.72364l0,-14.11683l4.44342,0l0,14.7994c0,4.48875 -2.60366,6.53115 -6.40583,6.53115c-3.43555,0 -5.91523,-2.3277 -6.92576,-4.49008l3.49154,-2.13705z" fill="#000001"/>
  </g>
 </g>
</svg>