<svg width="48" height="48" xmlns="http://www.w3.org/2000/svg">
 <defs>
  <linearGradient y2="0.3808" x2="0.00001" y1="0.38875" x1="1.00001" id="A">
   <stop stop-color="#366a96" offset="0"/>
   <stop stop-color="#3679b0" offset="1"/>
  </linearGradient>
  <linearGradient y2="0.5" x2="-0.97551" y1="0.5" x1="0.99999" id="B">
   <stop stop-color="#ffc836" offset="0"/>
   <stop stop-color="#ffe873" offset="1"/>
  </linearGradient>
 </defs>
 <g>
  <title>background</title>
  <rect fill="none" id="canvas_background" height="50" width="50" y="-1" x="-1"/>
 </g>
 <g>
  <title>Layer 1</title>
  <g stroke="null" id="svg_5">
   <path stroke="null" id="svg_2" fill="url(#A)" d="m12.39577,6.83279c0,-3.22826 0.88543,-4.98445 5.77407,-5.82073c3.31896,-0.56873 7.5745,-0.63982 11.54403,0c3.13524,0.50593 5.77407,2.78915 5.77407,5.82073l0,10.65067c0,3.12376 -2.562,5.68257 -5.77407,5.68257l-11.54403,0c-3.9179,0 -7.21989,3.26594 -7.21989,6.95819l0,5.11005l-3.96928,0c-3.3575,0 -5.31233,-2.36687 -6.13353,-5.67878c-1.1077,-4.44937 -1.06067,-7.10037 0,-11.36159c0.91961,-3.71737 3.85803,-5.67878 7.21577,-5.67878l15.881,0l0,-1.42183l-11.54839,0l0,-4.26074l0.00024,0.00024z"/>
   <path stroke="null" id="svg_3" fill="url(#B)" d="m35.48819,40.91708c0,3.22826 -2.86571,4.86336 -5.77407,5.67878c-4.37552,1.22941 -7.88718,1.04125 -11.54403,0c-3.05404,-0.86968 -5.77407,-2.64697 -5.77407,-5.67878l0,-10.65067c0,-3.06522 2.61338,-5.68257 5.77407,-5.68257l11.54403,0c3.84518,0 7.21989,-3.24888 7.21989,-7.10037l0,-4.96787l4.32849,0c3.36187,0 4.94463,2.44199 5.77407,5.67878c1.15472,4.49534 1.2061,7.85726 0,11.36159c-1.16756,3.40386 -2.41657,5.67878 -5.77407,5.67878l-17.31834,0l0,1.42183l11.54403,0l0,4.26074l0,-0.00024z"/>
   <path stroke="null" id="svg_4" fill="#fff" d="m15.28281,6.12614c0,-1.17917 0.96663,-2.13274 2.16449,-2.13274c1.19326,0 2.16449,0.95334 2.16449,2.13274c0,1.17538 -0.97099,2.12848 -2.16449,2.12848c-1.19738,0 -2.16449,-0.95334 -2.16449,-2.12848zm12.98936,35.49782c0,-1.17538 0.97099,-2.12848 2.16449,-2.12848c1.19738,0 2.16449,0.95334 2.16449,2.12848c0,1.17917 -0.96663,2.13274 -2.16449,2.13274c-1.19326,0 -2.16449,-0.95334 -2.16449,-2.13274z"/>
  </g>
 </g>
</svg>